<?xml version="1.0" encoding="UTF-8" standalone="no"?>
<!-- Created with Inkscape (http://www.inkscape.org/) -->

<svg
   xmlns:dc="http://purl.org/dc/elements/1.1/"
   xmlns:cc="http://creativecommons.org/ns#"
   xmlns:rdf="http://www.w3.org/1999/02/22-rdf-syntax-ns#"
   xmlns:svg="http://www.w3.org/2000/svg"
   xmlns="http://www.w3.org/2000/svg"
   xmlns:sodipodi="http://sodipodi.sourceforge.net/DTD/sodipodi-0.dtd"
   xmlns:inkscape="http://www.inkscape.org/namespaces/inkscape"
   version="1.1"
   id="svg2"
   xml:space="preserve"
   width="2201.0225"
   height="1361.7435"
   viewBox="0 0 2201.0225 1361.7435"
   sodipodi:docname="fpfrontpage.svg"
   inkscape:version="0.92.3 (2405546, 2018-03-11)"><metadata
     id="metadata8"><rdf:RDF><cc:Work
         rdf:about=""><dc:format>image/svg+xml</dc:format><dc:type
           rdf:resource="http://purl.org/dc/dcmitype/StillImage" /><dc:title></dc:title></cc:Work></rdf:RDF></metadata><defs
     id="defs6"><clipPath
       clipPathUnits="userSpaceOnUse"
       id="clipPath20"><path
         d="M 0,206.768 H 566.93 V 0 H 0 Z"
         id="path18"
         inkscape:connector-curvature="0" /></clipPath></defs><sodipodi:namedview
     pagecolor="#ffffff"
     bordercolor="#666666"
     borderopacity="1"
     objecttolerance="10"
     gridtolerance="10"
     guidetolerance="10"
     inkscape:pageopacity="0"
     inkscape:pageshadow="2"
     inkscape:window-width="1920"
     inkscape:window-height="1053"
     id="namedview4"
     showgrid="false"
     inkscape:zoom="0.53974917"
     inkscape:cx="848.08405"
     inkscape:cy="680.87177"
     inkscape:window-x="0"
     inkscape:window-y="27"
     inkscape:window-maximized="1"
     inkscape:current-layer="g10"
     fit-margin-top="0"
     fit-margin-left="0"
     fit-margin-right="0"
     fit-margin-bottom="0" /><g
     id="g10"
     inkscape:groupmode="layer"
     inkscape:label="Complete_lock-up_CMYK"
     transform="matrix(1.3333333,0,0,-1.3333333,735.06859,818.7171)"><rect
       style="fill:#cccccc;fill-opacity:1;stroke-width:0.75"
       id="rect142"
       width="1650.7668"
       height="1021.3077"
       x="-551.30145"
       y="-614.03784"
       transform="scale(1,-1)" /><path
       d="M 283.465,13.538 H 566.93 V 69.756 H 283.465 Z"
       style="fill:#ffffff;fill-opacity:1;fill-rule:nonzero;stroke:none"
       id="path12"
       inkscape:connector-curvature="0" /><g
       id="g14"><g
         id="g16"
         clip-path="url(#clipPath20)"><g
           id="g22"
           transform="translate(306.5168,36.5107)"><path
             d="m 0,0 c 0.652,-1.078 1.899,-1.617 3.74,-1.617 1.84,0 3.082,0.53 3.725,1.589 0.642,1.06 0.963,2.836 0.963,5.329 0,2.493 -0.331,4.305 -0.992,5.438 C 6.774,11.871 5.542,12.437 3.74,12.437 1.937,12.437 0.7,11.871 0.029,10.739 -0.643,9.606 -0.978,7.803 -0.978,5.328 -0.978,2.853 -0.652,1.077 0,0 M 9.967,-1.973 C 8.788,-3.507 6.712,-4.274 3.74,-4.274 c -2.973,0 -5.054,0.772 -6.242,2.315 -1.19,1.543 -1.784,3.968 -1.784,7.273 0,3.306 0.599,5.763 1.798,7.37 1.198,1.607 3.274,2.411 6.228,2.411 2.952,0 5.023,-0.799 6.213,-2.397 1.188,-1.599 1.783,-4.06 1.783,-7.384 0,-3.324 -0.59,-5.753 -1.769,-7.287"
             style="fill:#1d1d1b;fill-opacity:1;fill-rule:nonzero;stroke:none"
             id="path24"
             inkscape:connector-curvature="0" /></g><g
           id="g26"
           transform="translate(327.2359,38.5378)"><path
             d="m 0,0 c 0,-2.429 1.342,-3.644 4.027,-3.644 2.685,0 4.027,1.215 4.027,3.644 v 12.766 h 3.222 V 0.055 c 0,-2.21 -0.609,-3.822 -1.827,-4.836 -1.218,-1.013 -3.03,-1.52 -5.436,-1.52 -2.407,0 -4.214,0.507 -5.422,1.52 -1.208,1.014 -1.813,2.626 -1.813,4.836 V 12.766 H 0 Z"
             style="fill:#1d1d1b;fill-opacity:1;fill-rule:nonzero;stroke:none"
             id="path28"
             inkscape:connector-curvature="0" /></g><g
           id="g30"
           transform="translate(344.0326,48.3173)"><path
             d="M 0,0 V 2.712 H 14.382 V 0 H 8.831 V -16.054 H 5.609 V 0 Z"
             style="fill:#1d1d1b;fill-opacity:1;fill-rule:nonzero;stroke:none"
             id="path32"
             inkscape:connector-curvature="0" /></g><g
           id="g34"
           transform="translate(369.9595,48.6734)"><path
             d="m 0,0 c -2.435,0 -3.653,-0.813 -3.653,-2.438 0,-0.84 0.288,-1.438 0.863,-1.795 0.575,-0.356 1.845,-0.794 3.811,-1.314 1.965,-0.521 3.351,-1.142 4.156,-1.863 0.806,-0.722 1.209,-1.859 1.209,-3.411 0,-1.973 -0.59,-3.448 -1.769,-4.424 -1.18,-0.978 -2.786,-1.466 -4.818,-1.466 -1.63,0 -3.433,0.183 -5.408,0.548 l -1.036,0.192 0.317,2.438 c 2.589,-0.329 4.564,-0.493 5.925,-0.493 2.378,0 3.567,1.004 3.567,3.013 0,0.785 -0.269,1.365 -0.805,1.74 -0.538,0.374 -1.746,0.785 -3.625,1.233 -1.879,0.447 -3.279,1.063 -4.199,1.849 -0.921,0.785 -1.381,2.027 -1.381,3.726 0,1.698 0.58,2.981 1.74,3.849 1.16,0.867 2.766,1.301 4.818,1.301 1.477,0 3.222,-0.164 5.235,-0.493 L 5.954,2.027 5.695,-0.438 C 3.01,-0.146 1.112,0 0,0"
             style="fill:#1d1d1b;fill-opacity:1;fill-rule:nonzero;stroke:none"
             id="path36"
             inkscape:connector-curvature="0" /></g><g
           id="g38"
           transform="translate(383.1883,32.2637)"><path
             d="M 0,0 V 18.766 H 5.552 L 9.953,4.109 14.354,18.766 h 5.58 V 0 H 16.712 V 15.396 H 16.281 L 11.621,0.767 H 8.284 L 3.624,15.396 H 3.193 V 0 Z"
             style="fill:#1d1d1b;fill-opacity:1;fill-rule:nonzero;stroke:none"
             id="path40"
             inkscape:connector-curvature="0" /></g><g
           id="g42"
           transform="translate(416.9422,48.4817)"><path
             d="M 0,0 -2.445,-9.506 H 3.854 L 1.438,0 Z m -7.335,-16.218 4.861,18.766 h 6.357 l 4.89,-18.766 H 5.552 l -1.065,4.027 h -7.565 l -1.064,-4.027 z"
             style="fill:#1d1d1b;fill-opacity:1;fill-rule:nonzero;stroke:none"
             id="path44"
             inkscape:connector-curvature="0" /></g><g
           id="g46"
           transform="translate(442.7991,45.03)"><path
             d="M 0,0 C 0,2.246 -1.132,3.37 -3.394,3.37 H -7.68 v -6.822 h 4.343 c 1.151,0 1.994,0.315 2.531,0.945 C -0.269,-1.877 0,-1.041 0,0 m -7.68,-6.082 v -6.684 h -3.193 V 6 h 7.479 c 4.448,0 6.673,-1.991 6.673,-5.973 0,-2.666 -1.074,-4.474 -3.222,-5.424 l 3.251,-7.369 h -3.51 l -2.847,6.684 z"
             style="fill:#1d1d1b;fill-opacity:1;fill-rule:nonzero;stroke:none"
             id="path48"
             inkscape:connector-curvature="0" /></g><g
           id="g50"
           transform="translate(451.8339,48.3173)"><path
             d="M 0,0 V 2.712 H 14.382 V 0 H 8.831 V -16.054 H 5.609 V 0 Z"
             style="fill:#1d1d1b;fill-opacity:1;fill-rule:nonzero;stroke:none"
             id="path52"
             inkscape:connector-curvature="0" /></g><g
           id="g54"
           transform="translate(494.5439,45.3044)"><path
             d="M 0,0 C 0,2.246 -1.132,3.37 -3.394,3.37 H -7.68 v -6.822 h 4.343 c 1.151,0 1.994,0.315 2.531,0.945 C -0.269,-1.877 0,-1.041 0,0 m -7.68,-6.082 v -6.684 h -3.193 V 6 h 7.479 c 4.448,0 6.673,-1.991 6.673,-5.973 0,-2.666 -1.074,-4.474 -3.222,-5.424 l 3.251,-7.369 h -3.51 l -2.847,6.684 z"
             style="fill:#1d1d1b;fill-opacity:1;fill-rule:nonzero;stroke:none"
             id="path56"
             inkscape:connector-curvature="0" /></g><path
           d="m 505.113,51.304 h 3.193 V 32.538 h -3.193 z"
           style="fill:#1d1d1b;fill-opacity:1;fill-rule:nonzero;stroke:none"
           id="path58"
           inkscape:connector-curvature="0" /><g
           id="g60"
           transform="translate(521.7493,48.9478)"><path
             d="m 0,0 c -2.435,0 -3.653,-0.813 -3.653,-2.438 0,-0.84 0.288,-1.438 0.863,-1.795 0.575,-0.356 1.845,-0.794 3.811,-1.314 1.966,-0.521 3.351,-1.142 4.157,-1.863 0.805,-0.722 1.208,-1.859 1.208,-3.411 0,-1.973 -0.59,-3.448 -1.769,-4.424 -1.179,-0.978 -2.786,-1.466 -4.818,-1.466 -1.63,0 -3.433,0.183 -5.408,0.548 l -1.036,0.192 0.317,2.438 c 2.589,-0.329 4.564,-0.493 5.925,-0.493 2.378,0 3.567,1.004 3.567,3.013 0,0.785 -0.269,1.365 -0.805,1.74 -0.537,0.374 -1.745,0.785 -3.625,1.233 -1.879,0.447 -3.279,1.063 -4.199,1.849 -0.921,0.785 -1.381,2.027 -1.381,3.726 0,1.698 0.58,2.981 1.74,3.849 1.16,0.867 2.766,1.301 4.818,1.301 1.477,0 3.222,-0.164 5.236,-0.493 L 5.954,2.027 5.696,-0.438 C 3.01,-0.146 1.112,0 0,0"
             style="fill:#1d1d1b;fill-opacity:1;fill-rule:nonzero;stroke:none"
             id="path62"
             inkscape:connector-curvature="0" /></g><g
           id="g64"
           transform="translate(537.348,32.5382)"><path
             d="M 0,0 H -3.193 V 18.766 H 0 v -8.465 l 2.934,0.219 4.027,8.246 h 3.653 L 5.753,9.342 10.816,0 H 7.105 L 2.934,7.835 0,7.643 Z"
             style="fill:#1d1d1b;fill-opacity:1;fill-rule:nonzero;stroke:none"
             id="path66"
             inkscape:connector-curvature="0" /></g><path
           d="M 298.222,13.538 H 283.465 V 0 h 14.757 z"
           style="fill:#522142;fill-opacity:1;fill-rule:nonzero;stroke:none"
           id="path68"
           inkscape:connector-curvature="0" /><path
           d="M 312.992,13.538 H 298.235 V 0 h 14.757 z"
           style="fill:#83376b;fill-opacity:1;fill-rule:nonzero;stroke:none"
           id="path70"
           inkscape:connector-curvature="0" /><path
           d="M 327.763,13.538 H 313.006 V 0 h 14.757 z"
           style="fill:#c84784;fill-opacity:1;fill-rule:nonzero;stroke:none"
           id="path72"
           inkscape:connector-curvature="0" /><path
           d="M 342.534,13.538 H 327.777 V 0 h 14.757 z"
           style="fill:#e72559;fill-opacity:1;fill-rule:nonzero;stroke:none"
           id="path74"
           inkscape:connector-curvature="0" /><path
           d="M 460.699,13.538 H 445.942 V 0 h 14.757 z"
           style="fill:#e72559;fill-opacity:1;fill-rule:nonzero;stroke:none"
           id="path76"
           inkscape:connector-curvature="0" /><path
           d="M 357.304,13.538 H 342.547 V 0 h 14.757 z"
           style="fill:#e6282a;fill-opacity:1;fill-rule:nonzero;stroke:none"
           id="path78"
           inkscape:connector-curvature="0" /><path
           d="M 445.928,13.538 H 431.171 V 0 h 14.757 z"
           style="fill:#e6282a;fill-opacity:1;fill-rule:nonzero;stroke:none"
           id="path80"
           inkscape:connector-curvature="0" /><path
           d="M 372.075,13.538 H 357.318 V 0 h 14.757 z"
           style="fill:#e7421f;fill-opacity:1;fill-rule:nonzero;stroke:none"
           id="path82"
           inkscape:connector-curvature="0" /><path
           d="M 431.158,13.538 H 416.401 V 0 h 14.757 z"
           style="fill:#e7421f;fill-opacity:1;fill-rule:nonzero;stroke:none"
           id="path84"
           inkscape:connector-curvature="0" /><path
           d="M 386.846,13.538 H 372.089 V 0 h 14.757 z"
           style="fill:#ee752c;fill-opacity:1;fill-rule:nonzero;stroke:none"
           id="path86"
           inkscape:connector-curvature="0" /><path
           d="M 416.387,13.538 H 401.63 V 0 h 14.757 z"
           style="fill:#ee752c;fill-opacity:1;fill-rule:nonzero;stroke:none"
           id="path88"
           inkscape:connector-curvature="0" /><path
           d="M 401.616,13.538 H 386.859 V 0 h 14.757 z"
           style="fill:#fab415;fill-opacity:1;fill-rule:nonzero;stroke:none"
           id="path90"
           inkscape:connector-curvature="0" /><path
           d="M 283.465,69.756 H 0 v 137.012 h 283.465 z"
           style="fill:#ffffff;fill-opacity:1;fill-rule:nonzero;stroke:none"
           id="path92"
           inkscape:connector-curvature="0" /><g
           id="g94"
           transform="translate(40.1045,178.3267)"><path
             d="m 0,0 v 4.661 h -16.327 v -23.779 h 5.305 v 9.323 h 10.479 v 4.656 H -11.022 V 0 Z"
             style="fill:#1d1d1b;fill-opacity:1;fill-rule:nonzero;stroke:none"
             id="path96"
             inkscape:connector-curvature="0" /></g><g
           id="g98"
           transform="translate(65.3885,163.9001)"><path
             d="M 0,0 V 4.933 H 10.65 V 9.458 H 0 v 4.898 h 11.842 v 4.732 H -5.305 V -4.691 H 12.214 V 0 Z"
             style="fill:#1d1d1b;fill-opacity:1;fill-rule:nonzero;stroke:none"
             id="path100"
             inkscape:connector-curvature="0" /></g><g
           id="g102"
           transform="translate(102.2614,169.004)"><path
             d="M 0,0 2.997,6.909 5.954,0 Z M 5.546,13.984 H 0.412 L -9.861,-9.795 h 5.647 l 2.208,5.139 H 7.96 l 2.213,-5.139 h 5.646 z"
             style="fill:#1d1d1b;fill-opacity:1;fill-rule:nonzero;stroke:none"
             id="path104"
             inkscape:connector-curvature="0" /></g><g
           id="g106"
           transform="translate(132.2503,182.9881)"><path
             d="m 0,0 v -4.596 h 6.733 v -19.183 h 5.31 v 19.183 h 6.733 V 0 Z"
             style="fill:#1d1d1b;fill-opacity:1;fill-rule:nonzero;stroke:none"
             id="path108"
             inkscape:connector-curvature="0" /></g><g
           id="g110"
           transform="translate(182.9186,183.2244)"><path
             d="m 0,0 v -13.134 c 0,-1.901 -0.438,-3.405 -1.312,-4.506 -0.87,-1.101 -2.057,-1.649 -3.551,-1.649 -1.498,0 -2.69,0.548 -3.575,1.649 -0.885,1.101 -1.327,2.605 -1.327,4.506 V 0 h -5.305 v -13.305 c 0,-3.425 0.96,-6.065 2.876,-7.925 1.916,-1.856 4.36,-2.786 7.331,-2.786 2.967,0 5.406,0.92 7.312,2.771 1.906,1.845 2.856,4.495 2.856,7.94 V 0 Z"
             style="fill:#1d1d1b;fill-opacity:1;fill-rule:nonzero;stroke:none"
             id="path112"
             inkscape:connector-curvature="0" /></g><g
           id="g114"
           transform="translate(217.6915,172.2725)"><path
             d="m 0,0 c -0.659,-0.593 -1.891,-0.885 -3.706,-0.885 h -3.877 v 7.04 h 3.978 c 1.704,0 2.891,-0.237 3.575,-0.714 C 0.649,4.963 0.991,4.088 0.991,2.806 0.991,1.524 0.659,0.588 0,0 m 1.876,-4.561 c 3.012,1.111 4.52,3.57 4.52,7.382 0,2.766 -0.784,4.777 -2.363,6.024 -1.579,1.247 -4.214,1.871 -7.91,1.871 h -9.011 v -23.78 h 5.305 v 7.583 h 3.676 l 5.27,-7.583 h 6.532 z"
             style="fill:#1d1d1b;fill-opacity:1;fill-rule:nonzero;stroke:none"
             id="path116"
             inkscape:connector-curvature="0" /></g><g
           id="g118"
           transform="translate(247.471,163.9001)"><path
             d="M 0,0 V 4.933 H 10.65 V 9.458 H 0 v 4.898 h 11.842 v 4.727 H -5.305 V -4.692 H 12.214 V 0 Z"
             style="fill:#1d1d1b;fill-opacity:1;fill-rule:nonzero;stroke:none"
             id="path120"
             inkscape:connector-curvature="0" /></g><g
           id="g122"
           transform="translate(174.5814,98.227)"><path
             d="M 0,0 V 4.933 H 10.65 V 9.458 H 0 v 4.898 h 11.842 v 4.727 H -5.305 V -4.692 H 12.214 V 0 Z"
             style="fill:#1d1d1b;fill-opacity:1;fill-rule:nonzero;stroke:none"
             id="path124"
             inkscape:connector-curvature="0" /></g><g
           id="g126"
           transform="translate(71.8878,105.83)"><path
             d="m 0,0 c -0.634,-0.714 -1.835,-1.071 -3.605,-1.071 h -3.576 v 7.995 h 3.033 c 1.744,0 3.032,-0.291 3.856,-0.87 C 0.538,5.476 0.95,4.5 0.95,3.128 0.95,1.76 0.634,0.714 0,0 m 3.892,9.358 c -1.664,1.413 -4.324,2.122 -7.975,2.122 h -8.403 v -23.775 h 5.305 v 6.633 h 3.168 c 3.515,0 6.125,0.679 7.84,2.042 1.714,1.357 2.569,3.509 2.569,6.446 0,2.937 -0.835,5.109 -2.504,6.532"
             style="fill:#1d1d1b;fill-opacity:1;fill-rule:nonzero;stroke:none"
             id="path128"
             inkscape:connector-curvature="0" /></g><g
           id="g130"
           transform="translate(102.2638,103.3308)"><path
             d="M 0,0 2.997,6.904 5.954,0 Z M 5.546,13.979 H 0.407 L -9.866,-9.795 h 5.652 l 2.208,5.134 H 7.96 l 2.213,-5.134 h 5.647 z"
             style="fill:#1d1d1b;fill-opacity:1;fill-rule:nonzero;stroke:none"
             id="path132"
             inkscape:connector-curvature="0" /></g><g
           id="g134"
           transform="translate(142.8426,98.4985)"><path
             d="m 0,0 c -1.901,0 -3.525,0.674 -4.863,2.006 -1.337,1.343 -2.006,3.118 -2.006,5.325 0,2.213 0.709,3.973 2.127,5.275 1.418,1.303 3.123,1.956 5.119,1.956 2.494,0 4.581,-1.046 6.261,-3.132 l 3.298,3.741 c -2.63,2.972 -5.898,4.46 -9.795,4.46 -3.495,0 -6.447,-1.182 -8.865,-3.54 -2.414,-2.358 -3.621,-5.3 -3.621,-8.825 0,-3.525 1.182,-6.446 3.555,-8.759 2.369,-2.314 5.386,-3.47 9.046,-3.47 3.666,0 6.844,1.519 9.544,4.556 L 6.396,3.098 C 4.742,1.036 2.61,0 0,0"
             style="fill:#1d1d1b;fill-opacity:1;fill-rule:nonzero;stroke:none"
             id="path136"
             inkscape:connector-curvature="0" /></g><g
           id="g138"
           transform="translate(40.1835,105.5785)"><path
             d="m 0,0 c -1.061,0.945 -2.494,1.69 -4.289,2.233 h -0.005 c -0.312,0.095 -0.629,0.186 -0.961,0.266 -2.258,0.553 -3.696,1.036 -4.319,1.443 -0.624,0.413 -0.935,0.961 -0.935,1.655 0,0.689 0.251,1.247 0.764,1.664 0.508,0.417 1.207,0.629 2.092,0.629 1.996,0 3.937,-0.644 5.823,-1.936 l 0.508,0.769 2.111,3.198 c -1.03,0.764 -2.202,1.368 -3.509,1.815 -1.589,0.543 -3.178,0.815 -4.762,0.815 -2.429,0 -4.456,-0.613 -6.075,-1.835 -1.619,-1.227 -2.433,-2.967 -2.433,-5.225 0,-2.253 0.643,-3.912 1.925,-4.963 0.845,-0.699 2.022,-1.312 3.52,-1.83 0.765,-0.272 1.615,-0.518 2.55,-0.74 0.261,-0.065 0.508,-0.13 0.744,-0.196 h 0.005 c 1.333,-0.362 2.253,-0.724 2.756,-1.081 0.588,-0.417 0.885,-0.985 0.885,-1.699 0,-0.714 -0.277,-1.283 -0.835,-1.7 -0.553,-0.422 -1.323,-0.629 -2.293,-0.629 -1.071,0 -2.187,0.272 -3.354,0.815 -0.714,0.332 -1.443,0.764 -2.192,1.307 -0.297,0.207 -0.594,0.433 -0.895,0.679 l -3.163,-3.902 c 2.841,-2.398 6.009,-3.595 9.498,-3.595 2.61,0 4.712,0.664 6.311,1.991 1.599,1.328 2.399,3.057 2.399,5.184 C 1.871,-2.735 1.247,-1.111 0,0"
             style="fill:#1d1d1b;fill-opacity:1;fill-rule:nonzero;stroke:none"
             id="path140"
             inkscape:connector-curvature="0" /></g></g></g></g></svg>